<?xml version="1.0" encoding="UTF-8"?>
<svg version="1.1" viewBox="0 0 2000 2000" width="1280" height="1280" xmlns="http://www.w3.org/2000/svg">
<path transform="translate(0)" d="m0 0h2e3v2e3h-2e3z" fill="#FEFEFE"/>
<path transform="translate(1391,839)" d="m0 0h18l21 3 17 5 16 8 10 6 11 9 10 10 7 10 9 16 6 17 3 15 1 12v12l-2 18-4 15-4 11-10 18-12 14-10 9-13 9-19 9-17 5-14 2h-30l-22-4-16-6-17-9-16-13-10-11-9-14-8-17-4-14-2-13v-30l3-17 5-15 10-19 11-14 8-8 13-10 17-9 17-6 16-3z" fill="#010101"/>
<path transform="translate(260,548)" d="m0 0h100l20 3 20 6 21 11 13 11 8 8 7 10 10 19 5 16 2 11v33l-3 16-4 12-8 16-8 11-11 12-16 12-19 9-22 6-22 2h-93l-1-1z" fill="#010101"/>
<path transform="translate(1603,844)" d="m0 0h54l3 7 17 55 10 30 14 45v3h2l1-5 10-28 10-29 17-49 10-28 1-1h48l6 15 16 46 14 40 13 37 1 2 12-36 19-59 14-45h54l-3 12-16 49-16 50-14 44-11 33-11 34-2 2h-49l-7-18-20-58-19-53-4-13-2-1-2 9-21 60-17 48-9 25-1 1h-50l-12-36-24-74-16-50-18-56z" fill="#010101"/>
<path transform="translate(266,858)" d="m0 0h390l80 1v54l-127 1h-296l-72-1v-54z" fill="#010101"/>
<path transform="translate(1115,719)" d="m0 0h381l31 1v54h-495v-54z" fill="#010101"/>
<path transform="translate(573,548)" d="m0 0h147v43l-96 1v44l87 1v43h-88l1 48 99 1v43h-150z" fill="#010101"/>
<path transform="translate(859,547)" d="m0 0 5 1 13 35 21 56 8 21 11 29 3 7 5-12 15-40 13-35 15-40 8-21 3-1 52 1-3 9-50 130-18 47-14 36-2 2h-49l-4-8-15-40-17-44-15-39-22-57-12-31-1-5z" fill="#010101"/>
<path transform="translate(796,844)" d="m0 0h140v46h-89v56h81v45l-81 1v75l-1 1h-50l-1-4z" fill="#010101"/>
<path transform="translate(1044,844)" d="m0 0h50l1 1v174l97 1 1 1v47h-149l-1-13z" fill="#010101"/>
<path transform="translate(1394,888)" d="m0 0h11l15 2 13 5 11 7 8 8 9 14 5 15 1 6v22l-4 16-6 12-7 9-9 8-16 8-12 3-18 1-14-2-13-5-10-6-10-9-8-12-5-13-2-10v-22l4-16 7-14 11-12 10-7 12-5 8-2z" fill="#FEFEFE"/>
<path transform="translate(311,595)" d="m0 0h44l16 3 12 5 11 8 7 7 8 14 4 13 1 6v19l-4 15-7 14-9 10-8 6-10 5-16 4-9 1h-40z" fill="#FEFEFE"/>
</svg>
